<svg xmlns="http://www.w3.org/2000/svg" xmlns:xlink="http://www.w3.org/1999/xlink" width="375" zoomAndPan="magnify" viewBox="0 100 375 170" height="190" preserveAspectRatio="xMidYMid meet" version="1.0"><defs><g/></defs><path stroke-linecap="butt" transform="matrix(3.179228, -0.283302, 0.283302, 3.179228, 37.321687, 88.399264)" fill="none" stroke-linejoin="miter" d="M 18.522698 17.653842 L 18.521836 48.714763 C 17.600187 49.516055 16.366957 50.187601 14.823365 50.72951 C 13.279882 51.270201 11.405399 51.540575 9.201135 51.540741 C 6.995651 51.540798 5.121362 51.050637 3.578485 50.06782 C 1.833809 49.005587 0.962673 47.502692 0.962748 45.557701 L 0.962391 14.496671 C 1.88404 13.69538 3.11727 13.023834 4.660861 12.481924 C 6.204345 11.941234 8.067748 11.671101 10.253619 11.670525 C 12.438162 11.671059 14.332933 12.151987 15.936603 13.114419 C 17.66052 14.216577 18.522145 15.729682 18.522698 17.653842 Z M 18.522698 17.653842 " stroke="#7ed957" stroke-width="10.624103" stroke-opacity="1" stroke-miterlimit="4"/><path stroke-linecap="butt" transform="matrix(3.190938, -0.0752835, 0.0752835, 3.190938, 106.943985, 81.788805)" fill="none" stroke-linejoin="miter" d="M 7.93858 51.029602 C 5.713036 51.029735 3.993565 50.438291 2.781363 49.256523 C 1.567965 48.073503 0.962479 46.289068 0.962429 43.904384 L 0.962122 14.497366 C 2.025191 13.594526 3.322107 12.897967 4.856539 12.407775 C 6.389777 11.916332 7.978416 11.671029 9.622486 11.670644 C 12.047574 11.670323 14.102223 12.272123 15.786462 13.474821 C 17.610154 14.837502 18.521765 16.722196 18.522548 19.127709 L 18.522584 35.574433 C 17.400089 35.675264 16.297013 35.990783 15.21455 36.522241 C 14.132087 37.0537 13.590377 37.599141 13.590586 38.16104 C 13.591126 38.501372 13.781353 38.792316 14.16252 39.032677 C 16.146969 37.36933 19.093605 36.536637 23.00237 36.537043 L 30.128254 36.537452 C 31.451808 38.862773 32.113149 41.237352 32.113441 43.663664 C 32.113235 44.865794 31.903055 46.198853 31.481679 47.662812 C 31.060331 49.125548 30.498879 50.248331 29.797352 51.029939 Z M 7.93858 51.029602 " stroke="#7ed957" stroke-width="10.624103" stroke-opacity="1" stroke-miterlimit="4"/><path stroke-linecap="butt" transform="matrix(3.185026, 0.208237, -0.208237, 3.185026, 219.971109, 79.163016)" fill="none" stroke-linejoin="miter" d="M 20.446259 39.033125 C 20.647338 39.032243 20.826825 38.982489 20.988303 38.882401 L 20.98725 36.146277 C 22.350875 35.224369 24.260367 34.472815 26.715725 33.891614 C 29.171003 33.309192 31.562002 33.019187 33.887339 33.019236 C 34.94906 34.10145 35.836124 35.72 36.548532 37.874886 C 37.259719 40.029853 37.636175 41.979812 37.675378 43.723703 C 37.275208 44.524977 36.598172 45.387279 35.646634 46.309226 C 34.693875 47.231253 33.546477 48.083834 32.203059 48.864607 C 28.875432 50.829847 25.05671 51.811701 20.746972 51.811389 C 14.573071 51.811539 9.711894 50.017428 6.16344 46.429058 C 2.495936 42.801867 0.661173 37.774446 0.661832 31.350299 C 0.661271 24.926231 2.666465 19.879552 6.674974 16.210419 C 8.439074 14.566936 10.493362 13.328829 12.83914 12.497239 C 15.184918 11.66565 17.649834 11.249394 20.23641 11.249533 C 25.28688 11.249247 29.426374 12.472414 32.654812 14.917813 C 35.882029 17.363291 37.495822 20.380304 37.494969 23.968929 C 37.495248 26.674442 36.66322 28.673978 35.000107 29.967455 C 33.335693 31.259791 31.080841 31.906375 28.234248 31.906065 C 26.670563 31.906504 25.097603 31.52122 23.514068 30.749072 C 21.929311 29.977003 20.987701 29.249964 20.686875 28.569333 C 20.687272 26.924648 20.716851 25.632497 20.776671 24.690358 C 20.737296 24.66963 20.666729 24.659526 20.566189 24.659967 L 20.356482 24.660187 C 20.056005 24.660209 19.819975 24.745548 19.649614 24.916123 C 19.479253 25.086699 19.329577 25.442342 19.198142 25.983211 C 19.067929 26.524 19.003602 27.997483 19.002637 30.4026 C 19.003488 36.155784 19.484669 39.032219 20.446259 39.033125 Z M 20.446259 39.033125 " stroke="#7ed957" stroke-width="10.624103" stroke-opacity="1" stroke-miterlimit="4"/><g fill="#c1ff72" fill-opacity="1"><g transform="translate(51.770081, 250.539904)"><g><path d="M 49.4375 -111.265625 L 58.25 -12.515625 C 55.53125 -9.703125 51.796875 -7.210938 47.046875 -5.046875 C 42.296875 -2.890625 36.414062 -1.5 29.40625 -0.875 C 22.394531 -0.25 16.296875 -1.28125 11.109375 -3.96875 C 5.265625 -6.851562 2.066406 -11.390625 1.515625 -17.578125 L -7.28125 -116.3125 C -4.582031 -119.132812 -0.859375 -121.617188 3.890625 -123.765625 C 8.648438 -125.921875 14.503906 -127.304688 21.453125 -127.921875 C 28.398438 -128.546875 34.554688 -127.554688 39.921875 -124.953125 C 45.722656 -121.941406 48.894531 -117.378906 49.4375 -111.265625 Z M 49.4375 -111.265625 "/></g></g></g><g fill="#c1ff72" fill-opacity="1"><g transform="translate(110.783444, 244.526623)"><g><path d="M 25.34375 -0.5 C 18.238281 -0.332031 12.707031 -2.09375 8.75 -5.78125 C 4.789062 -9.46875 2.722656 -15.117188 2.546875 -22.734375 L 0.328125 -116.546875 C 3.648438 -119.503906 7.738281 -121.820312 12.59375 -123.5 C 17.457031 -125.1875 22.503906 -126.09375 27.734375 -126.21875 C 35.484375 -126.40625 42.085938 -124.640625 47.546875 -120.921875 C 53.472656 -116.710938 56.53125 -110.769531 56.71875 -103.09375 L 57.953125 -50.609375 C 54.367188 -50.203125 50.867188 -49.109375 47.453125 -47.328125 C 44.035156 -45.554688 42.347656 -43.773438 42.390625 -41.984375 C 42.421875 -40.890625 43.050781 -39.976562 44.28125 -39.25 C 50.488281 -44.707031 59.832031 -47.582031 72.3125 -47.875 L 95.03125 -48.40625 C 99.4375 -41.09375 101.734375 -33.570312 101.921875 -25.84375 C 102.003906 -22 101.429688 -17.722656 100.203125 -13.015625 C 98.972656 -8.316406 97.265625 -4.691406 95.078125 -2.140625 Z M 25.34375 -0.5 "/></g></g></g><g fill="#c1ff72" fill-opacity="1"><g transform="translate(209.35104, 241.599331)"><g><path d="M 67.609375 -33.875 C 68.242188 -33.832031 68.828125 -33.945312 69.359375 -34.21875 L 69.9375 -42.9375 C 74.46875 -45.59375 80.707031 -47.585938 88.65625 -48.921875 C 96.601562 -50.265625 104.273438 -50.691406 111.671875 -50.203125 C 114.835938 -46.535156 117.328125 -41.195312 119.140625 -34.1875 C 120.960938 -27.1875 121.753906 -20.898438 121.515625 -15.328125 C 120.066406 -12.859375 117.726562 -10.253906 114.5 -7.515625 C 111.28125 -4.785156 107.445312 -2.3125 103 -0.09375 C 92 5.476562 79.632812 7.8125 65.90625 6.90625 C 46.238281 5.625 31.128906 -1.101562 20.578125 -13.28125 C 9.648438 -25.59375 4.851562 -41.976562 6.1875 -62.4375 C 7.53125 -82.894531 14.972656 -98.550781 28.515625 -109.40625 C 34.460938 -114.28125 41.257812 -117.796875 48.90625 -119.953125 C 56.550781 -122.117188 64.492188 -122.929688 72.734375 -122.390625 C 88.816406 -121.335938 101.742188 -116.578125 111.515625 -108.109375 C 121.285156 -99.648438 125.796875 -89.707031 125.046875 -78.28125 C 124.484375 -69.664062 121.414062 -63.472656 115.84375 -59.703125 C 110.28125 -55.929688 102.960938 -54.34375 93.890625 -54.9375 C 88.910156 -55.257812 83.976562 -56.8125 79.09375 -59.59375 C 74.21875 -62.382812 71.375 -64.894531 70.5625 -67.125 C 70.90625 -72.363281 71.269531 -76.476562 71.65625 -79.46875 C 71.53125 -79.539062 71.304688 -79.585938 70.984375 -79.609375 L 70.3125 -79.65625 C 69.351562 -79.71875 68.585938 -79.492188 68.015625 -78.984375 C 67.441406 -78.484375 66.890625 -77.378906 66.359375 -75.671875 C 65.835938 -73.972656 65.320312 -69.296875 64.8125 -61.640625 C 63.613281 -43.328125 64.546875 -34.070312 67.609375 -33.875 Z M 67.609375 -33.875 "/></g></g></g></svg>
